<svg width="35" height="34" viewBox="0 0 35 34" fill="none" xmlns="http://www.w3.org/2000/svg">
<circle cx="17.5" cy="16.5" r="12.5" fill="#F53838"/>
<path d="M17.4 0C8.12148 0 0.599976 7.5215 0.599976 16.8C0.599976 26.0785 8.12148 33.6 17.4 33.6C26.6785 33.6 34.2 26.0785 34.2 16.8C34.2 7.5215 26.6785 0 17.4 0ZM24.2337 13.762C24.2407 13.9055 24.2425 14.049 24.2425 14.189C24.2425 18.564 20.9157 23.6058 14.8292 23.6058C13.0307 23.6087 11.2697 23.0922 9.75773 22.1183C10.015 22.1498 10.2792 22.162 10.547 22.162C12.0975 22.162 13.5237 21.6353 14.656 20.7463C13.966 20.7327 13.2974 20.5042 12.7434 20.0927C12.1894 19.6811 11.7777 19.107 11.5655 18.4503C12.061 18.5445 12.5715 18.5247 13.0582 18.3925C12.3093 18.2411 11.6358 17.8353 11.152 17.2439C10.6681 16.6526 10.4037 15.9121 10.4035 15.148V15.1078C10.8497 15.3545 11.3607 15.505 11.9032 15.5225C11.2011 15.0551 10.7041 14.3372 10.5138 13.5155C10.3235 12.6938 10.4543 11.8304 10.8795 11.102C11.7106 12.124 12.7472 12.9601 13.922 13.556C15.0968 14.152 16.3836 14.4947 17.6992 14.5618C17.532 13.8518 17.604 13.1065 17.904 12.4416C18.204 11.7768 18.7153 11.2297 19.3584 10.8855C20.0014 10.5412 20.7402 10.419 21.4598 10.5379C22.1794 10.6568 22.8396 11.0102 23.3377 11.543C24.0783 11.3965 24.7884 11.1248 25.4377 10.7398C25.1909 11.5065 24.6742 12.1576 23.9835 12.572C24.6395 12.493 25.28 12.3166 25.884 12.0488C25.4403 12.7136 24.8815 13.2938 24.2337 13.762V13.762Z" fill="white"/>
</svg>
